<?xml version="1.0" encoding="UTF-8"?>
<svg xmlns="http://www.w3.org/2000/svg" xmlns:xlink="http://www.w3.org/1999/xlink" width="50px" height="50px" viewBox="0 0 50 50" version="1.1">
<g id="surface1">
<path style=" stroke:none;fill-rule:nonzero;fill:rgb(0%,0%,0%);fill-opacity:1;" d="M 25 50 C 23.652344 50 22.558594 48.90625 22.558594 47.558594 L 22.558594 2.441406 C 22.558594 1.09375 23.652344 0 25 0 C 26.347656 0 27.441406 1.09375 27.441406 2.441406 L 27.441406 47.558594 C 27.441406 48.90625 26.347656 50 25 50 Z M 25 50 "/>
<path style=" stroke:none;fill-rule:nonzero;fill:rgb(0%,0%,0%);fill-opacity:1;" d="M 47.558594 27.441406 L 2.441406 27.441406 C 1.09375 27.441406 0 26.347656 0 25 C 0 23.652344 1.09375 22.558594 2.441406 22.558594 L 47.558594 22.558594 C 48.90625 22.558594 50 23.652344 50 25 C 50 26.347656 48.90625 27.441406 47.558594 27.441406 Z M 47.558594 27.441406 "/>
</g>
</svg>
