<?xml version="1.0" encoding="UTF-8"?>
<svg xmlns="http://www.w3.org/2000/svg" xmlns:xlink="http://www.w3.org/1999/xlink" width="50px" height="50px" viewBox="0 0 50 50" version="1.1">
<g id="surface1">
<path style=" stroke:none;fill-rule:nonzero;fill:rgb(100%,100%,100%);fill-opacity:1;" d="M 0 25 C 0 11.191406 11.191406 0 25 0 C 38.808594 0 50 11.191406 50 25 C 50 38.808594 38.808594 50 25 50 C 11.191406 50 0 38.808594 0 25 Z M 0 25 "/>
<path style=" stroke:none;fill-rule:evenodd;fill:rgb(13.333333%,12.156863%,12.156863%);fill-opacity:1;" d="M 19.191406 21.839844 C 18.570312 22.730469 18.261719 23.804688 18.261719 25.0625 L 18.257812 25.0625 C 18.257812 26.644531 18.707031 27.867188 19.609375 28.730469 C 20.507812 29.59375 21.660156 30.023438 23.058594 30.023438 C 23.96875 30.023438 24.734375 29.933594 25.351562 29.75 C 26.332031 29.476562 27.332031 28.789062 28.351562 27.675781 C 28.425781 27.769531 28.554688 27.945312 28.738281 28.210938 C 28.917969 28.476562 29.046875 28.652344 29.132812 28.746094 C 29.210938 28.835938 29.347656 28.980469 29.539062 29.179688 C 29.730469 29.378906 29.953125 29.589844 30.207031 29.808594 C 30.515625 29.933594 30.78125 29.917969 31 29.75 C 31.125 29.644531 31.945312 28.9375 33.457031 27.621094 C 33.601562 27.515625 33.671875 27.386719 33.671875 27.242188 C 33.671875 27.113281 33.617188 26.96875 33.511719 26.804688 L 32.882812 25.972656 C 32.757812 25.800781 32.621094 25.519531 32.488281 25.125 C 32.351562 24.738281 32.285156 24.304688 32.285156 23.832031 L 32.285156 17.230469 C 32.285156 17.160156 32.277344 16.925781 32.257812 16.535156 C 32.238281 16.148438 32.210938 15.890625 32.175781 15.769531 C 32.140625 15.652344 32.085938 15.441406 32.007812 15.132812 C 31.9375 14.824219 31.859375 14.585938 31.765625 14.421875 C 31.675781 14.257812 31.550781 14.074219 31.394531 13.863281 C 31.242188 13.65625 31.074219 13.457031 30.894531 13.277344 C 29.726562 12.203125 28.109375 11.667969 26.035156 11.667969 L 25.355469 11.667969 C 23.738281 11.757812 22.324219 12.195312 21.113281 12.976562 C 19.90625 13.757812 19.148438 14.957031 18.839844 16.574219 C 18.820312 16.648438 18.808594 16.710938 18.808594 16.765625 C 18.808594 17.023438 18.964844 17.183594 19.273438 17.261719 L 22.410156 17.644531 C 22.699219 17.589844 22.882812 17.378906 22.957031 17.015625 C 23.082031 16.433594 23.363281 15.976562 23.800781 15.648438 C 24.238281 15.320312 24.757812 15.132812 25.359375 15.074219 L 25.570312 15.074219 C 26.390625 15.074219 26.988281 15.347656 27.371094 15.898438 C 27.625 16.292969 27.753906 17.078125 27.753906 18.242188 L 27.753906 18.703125 C 26.644531 18.792969 25.84375 18.867188 25.355469 18.921875 C 23.917969 19.105469 22.707031 19.402344 21.726562 19.820312 C 20.652344 20.277344 19.808594 20.949219 19.191406 21.839844 Z M 23.484375 26.21875 C 23.128906 25.789062 22.953125 25.222656 22.953125 24.515625 C 22.953125 22.953125 23.75 21.941406 25.351562 21.488281 C 25.894531 21.34375 26.695312 21.269531 27.753906 21.269531 L 27.753906 21.949219 C 27.753906 22.53125 27.75 22.953125 27.738281 23.207031 C 27.730469 23.460938 27.675781 23.792969 27.578125 24.199219 C 27.476562 24.609375 27.324219 24.988281 27.125 25.332031 C 26.707031 26.117188 26.117188 26.605469 25.355469 26.804688 C 25.316406 26.804688 25.246094 26.816406 25.148438 26.832031 C 25.046875 26.851562 24.972656 26.859375 24.914062 26.859375 C 24.316406 26.859375 23.839844 26.644531 23.484375 26.21875 Z M 23.484375 26.21875 "/>
<path style=" stroke:none;fill-rule:nonzero;fill:rgb(100%,60%,0%);fill-opacity:1;" d="M 34.40625 33.296875 C 34.445312 33.222656 34.5 33.152344 34.570312 33.078125 C 35.027344 32.769531 35.464844 32.558594 35.882812 32.453125 C 36.570312 32.273438 37.246094 32.171875 37.898438 32.152344 C 38.082031 32.132812 38.257812 32.144531 38.417969 32.179688 C 39.238281 32.253906 39.730469 32.390625 39.890625 32.59375 C 39.964844 32.699219 40 32.863281 40 33.078125 L 40 33.269531 C 40 33.910156 39.828125 34.660156 39.480469 35.523438 C 39.136719 36.382812 38.652344 37.082031 38.039062 37.609375 C 37.945312 37.683594 37.863281 37.71875 37.789062 37.71875 C 37.753906 37.71875 37.714844 37.707031 37.683594 37.691406 C 37.570312 37.636719 37.546875 37.535156 37.601562 37.390625 C 38.273438 35.808594 38.609375 34.710938 38.609375 34.089844 C 38.609375 33.890625 38.570312 33.742188 38.5 33.652344 C 38.316406 33.4375 37.808594 33.328125 36.972656 33.328125 C 36.664062 33.328125 36.300781 33.347656 35.882812 33.382812 C 35.425781 33.441406 35.007812 33.492188 34.628906 33.546875 C 34.515625 33.546875 34.445312 33.527344 34.40625 33.492188 C 34.371094 33.453125 34.363281 33.417969 34.382812 33.382812 C 34.382812 33.363281 34.390625 33.335938 34.40625 33.300781 Z M 34.40625 33.296875 "/>
<path style=" stroke:none;fill-rule:nonzero;fill:rgb(100%,60%,0%);fill-opacity:1;" d="M 10.054688 32.835938 C 10.144531 32.6875 10.289062 32.679688 10.492188 32.804688 C 15.035156 35.441406 19.984375 36.761719 25.328125 36.761719 C 28.894531 36.761719 32.414062 36.097656 35.886719 34.769531 L 36.28125 34.605469 C 36.453125 34.53125 36.574219 34.480469 36.648438 34.441406 C 36.921875 34.335938 37.136719 34.386719 37.292969 34.605469 C 37.445312 34.824219 37.394531 35.023438 37.140625 35.207031 C 36.8125 35.441406 36.394531 35.714844 35.886719 36.023438 C 34.324219 36.953125 32.578125 37.671875 30.648438 38.179688 C 28.722656 38.6875 26.84375 38.945312 25.003906 38.945312 C 22.167969 38.945312 19.488281 38.445312 16.960938 37.457031 C 14.429688 36.464844 12.167969 35.070312 10.167969 33.269531 C 10.054688 33.179688 10 33.085938 10 32.996094 C 10 32.941406 10.019531 32.890625 10.054688 32.835938 Z M 10.054688 32.835938 "/>
</g>
</svg>
