<?xml version="1.0" encoding="UTF-8"?>
<svg xmlns="http://www.w3.org/2000/svg" xmlns:xlink="http://www.w3.org/1999/xlink" width="69px" height="50px" viewBox="0 0 68 50" version="1.1">
<g id="surface1">
<path style=" stroke:none;fill-rule:nonzero;fill:rgb(0%,0%,0%);fill-opacity:1;" d="M 64.910156 21.90625 L 10.550781 21.90625 L 26.914062 5.367188 C 27.714844 4.582031 28.039062 3.417969 27.753906 2.328125 C 27.472656 1.234375 26.628906 0.378906 25.546875 0.09375 C 24.46875 -0.191406 23.316406 0.132812 22.542969 0.945312 L 0.90625 22.820312 C -0.300781 24.042969 -0.300781 26.019531 0.90625 27.242188 L 22.542969 49.117188 C 23.753906 50.300781 25.683594 50.28125 26.875 49.078125 C 28.066406 47.871094 28.082031 45.921875 26.914062 44.695312 L 10.550781 28.15625 L 64.910156 28.15625 C 66.617188 28.15625 68 26.757812 68 25.03125 C 68 23.304688 66.617188 21.90625 64.910156 21.90625 Z M 64.910156 21.90625 "/>
</g>
</svg>
