<?xml version="1.0" encoding="UTF-8"?>
<svg xmlns="http://www.w3.org/2000/svg" xmlns:xlink="http://www.w3.org/1999/xlink" width="52px" height="50px" viewBox="0 0 52 50" version="1.1">
<g id="surface1">
<path style=" stroke:none;fill-rule:nonzero;fill:rgb(0%,0%,0%);fill-opacity:1;" d="M 44.402344 12.871094 L 7.597656 12.871094 C 3.421875 12.871094 0.0195312 16.300781 0.0195312 20.515625 L 0.0195312 42.355469 C 0.0195312 46.570312 3.421875 50 7.597656 50 L 44.402344 50 C 48.578125 50 51.980469 46.570312 51.980469 42.355469 L 51.980469 20.515625 C 51.980469 16.300781 48.578125 12.871094 44.402344 12.871094 Z M 49.8125 42.355469 C 49.8125 45.367188 47.386719 47.816406 44.402344 47.816406 L 7.597656 47.816406 C 4.613281 47.816406 2.1875 45.367188 2.1875 42.355469 L 2.1875 20.515625 C 2.1875 17.507812 4.613281 15.054688 7.597656 15.054688 L 44.402344 15.054688 C 47.386719 15.054688 49.8125 17.507812 49.8125 20.515625 Z M 49.8125 42.355469 "/>
<path style=" stroke:none;fill-rule:nonzero;fill:rgb(0%,0%,0%);fill-opacity:1;" d="M 42.238281 28.160156 C 40.445312 28.160156 38.988281 29.628906 38.988281 31.4375 C 38.988281 33.242188 40.445312 34.710938 42.238281 34.710938 C 44.027344 34.710938 45.484375 33.242188 45.484375 31.4375 C 45.484375 29.628906 44.027344 28.160156 42.238281 28.160156 Z M 42.238281 32.527344 C 41.640625 32.527344 41.152344 32.039062 41.152344 31.4375 C 41.152344 30.832031 41.640625 30.34375 42.238281 30.34375 C 42.832031 30.34375 43.320312 30.832031 43.320312 31.4375 C 43.320312 32.039062 42.832031 32.527344 42.238281 32.527344 Z M 42.238281 32.527344 "/>
<path style=" stroke:none;fill-rule:nonzero;fill:rgb(0%,0%,0%);fill-opacity:1;" d="M 50.894531 23.792969 L 42.238281 23.792969 C 38.058594 23.792969 34.660156 27.222656 34.660156 31.4375 C 34.660156 35.652344 38.058594 39.078125 42.238281 39.078125 L 50.894531 39.078125 C 51.492188 39.078125 51.980469 38.589844 51.980469 37.988281 L 51.980469 24.882812 C 51.980469 24.28125 51.492188 23.792969 50.894531 23.792969 Z M 49.8125 36.894531 L 42.238281 36.894531 C 39.25 36.894531 36.824219 34.445312 36.824219 31.4375 C 36.824219 28.425781 39.25 25.976562 42.238281 25.976562 L 49.8125 25.976562 Z M 44.285156 13.476562 L 39.703125 4.226562 C 38.78125 2.363281 37.183594 0.988281 35.214844 0.359375 C 33.242188 -0.265625 31.15625 -0.0703125 29.335938 0.917969 L 7.085938 13.003906 C 6.558594 13.285156 6.363281 13.949219 6.644531 14.480469 C 6.929688 15.011719 7.585938 15.210938 8.113281 14.925781 L 30.363281 2.84375 C 31.664062 2.136719 33.160156 1.992188 34.5625 2.441406 C 35.96875 2.890625 37.109375 3.875 37.769531 5.207031 L 42.351562 14.453125 C 42.535156 14.824219 42.910156 15.054688 43.320312 15.054688 C 43.480469 15.054688 43.644531 15.019531 43.800781 14.941406 C 44.335938 14.667969 44.554688 14.015625 44.285156 13.476562 Z M 44.285156 13.476562 "/>
<path style=" stroke:none;fill-rule:nonzero;fill:rgb(0%,0%,0%);fill-opacity:1;" d="M 39.945312 4.710938 C 39.660156 4.179688 39 3.984375 38.476562 4.265625 L 22.394531 13.003906 C 21.867188 13.289062 21.671875 13.949219 21.953125 14.480469 C 22.148438 14.847656 22.519531 15.054688 22.90625 15.054688 C 23.078125 15.054688 23.257812 15.015625 23.421875 14.925781 L 39.503906 6.191406 C 40.03125 5.90625 40.226562 5.242188 39.945312 4.710938 Z M 19.503906 6.320312 L 11.929688 6.320312 C 5.363281 6.320312 0.0195312 11.707031 0.0195312 18.332031 L 0.0195312 20.515625 C 0.0195312 21.117188 0.507812 21.609375 1.105469 21.609375 C 1.703125 21.609375 2.1875 21.117188 2.1875 20.515625 L 2.1875 18.332031 C 2.1875 12.914062 6.558594 8.503906 11.929688 8.503906 L 19.503906 8.503906 C 20.101562 8.503906 20.585938 8.015625 20.585938 7.410156 C 20.585938 6.808594 20.101562 6.320312 19.503906 6.320312 Z M 40.070312 6.320312 C 39.472656 6.320312 38.988281 6.808594 38.988281 7.410156 C 38.988281 8.015625 39.472656 8.503906 40.070312 8.503906 C 45.441406 8.503906 49.8125 12.914062 49.8125 18.332031 L 49.8125 20.515625 C 49.8125 21.117188 50.296875 21.609375 50.894531 21.609375 C 51.492188 21.609375 51.980469 21.117188 51.980469 20.515625 L 51.980469 18.332031 C 51.980469 11.707031 46.636719 6.320312 40.070312 6.320312 Z M 40.070312 6.320312 "/>
</g>
</svg>
