<svg xmlns="http://www.w3.org/2000/svg" width="28" height="50" viewBox="0 0 28 49"><g id="surface1"><path d="M7.652 9.68c0-.63.215-1.262.852-1.68.848-.84 2.336-.633 2.973.21 7.859 9.454 7.859 22.903 0 32.36-.848.84-2.125 1.051-2.973.211-.852-.84-1.063-2.101-.215-2.941a20.78 20.78 0 0 0 0-26.899c-.637-.21-.637-.84-.637-1.261m0 0" style="stroke:none;fill-rule:nonzero;fill:#fff;fill-opacity:1"/><path d="M15.09 46.664c0-.422.21-1.05.637-1.473 10.62-11.976 10.62-29.836 0-41.605-.852-.84-.637-2.102.21-2.941.852-.84 2.126-.63 2.977.21 12.11 13.45 12.11 33.833 0 47.282-.852.84-2.125 1.047-2.977.207-.636-.63-.847-1.051-.847-1.68M.004 31.746c0-.422.215-.844.426-1.262 2.55-3.574 2.55-8.617 0-12.187-.637-1.05-.426-2.313.425-2.942 1.063-.632 2.336-.421 2.973.418 3.613 5.043 3.613 11.977 0 17.024-.637 1.05-1.91 1.258-2.973.418-.636-.211-.851-.84-.851-1.469m0 0" style="stroke:none;fill-rule:nonzero;fill:#fff;fill-opacity:1"/></g></svg>