<?xml version="1.0" encoding="UTF-8"?>
<svg xmlns="http://www.w3.org/2000/svg" xmlns:xlink="http://www.w3.org/1999/xlink" width="121px" height="50px" viewBox="0 0 125 50" version="1.1">
<g id="surface1">
<path style=" stroke:none;fill-rule:nonzero;fill:rgb(0%,0%,0%);fill-opacity:1;" d="M 106.65625 21.757812 C 104.191406 22.152344 101.703125 22.40625 99.203125 22.523438 L 98.558594 24.617188 C 100.101562 24.503906 101.652344 24.503906 103.191406 24.617188 C 103.191406 24.617188 103.796875 24.617188 103.878906 25.300781 C 103.925781 25.835938 103.941406 26.375 103.917969 26.914062 C 102.46875 27.519531 97.390625 27.839844 97.390625 27.839844 L 96.585938 30.621094 C 96.585938 30.621094 96.261719 31.226562 96.949219 31.0625 C 99.140625 30.570312 101.359375 30.222656 103.597656 30.015625 C 104.488281 30.300781 105.046875 31.183594 104.925781 32.109375 C 102.582031 34.664062 99.324219 36.1875 95.859375 36.339844 C 94.527344 36.179688 93.363281 35.363281 92.757812 34.164062 C 91.386719 31.992188 93.242188 27.878906 93.242188 27.878906 C 93.242188 27.878906 92.394531 25.945312 93.039062 25.261719 C 93.441406 24.984375 93.921875 24.84375 94.410156 24.859375 L 95.738281 22.160156 C 94.839844 22.210938 93.96875 21.855469 93.363281 21.191406 C 92.554688 20.144531 92.515625 19.660156 93.121094 19.378906 C 96.730469 18.484375 100.441406 18.050781 104.160156 18.089844 C 104.160156 18.089844 105.652344 18.089844 106.941406 20.46875 C 106.941406 20.46875 107.542969 21.515625 106.496094 21.757812 Z M 90.703125 32.109375 C 90.484375 32.867188 89.957031 33.496094 89.253906 33.839844 C 88.546875 34.1875 87.726562 34.21875 86.996094 33.925781 C 85.222656 33.078125 82.402344 27.355469 82.402344 27.355469 C 82.402344 27.355469 81.355469 25.222656 81.15625 25.300781 C 80.953125 25.382812 80.914062 24.859375 80.792969 27.195312 C 80.671875 29.53125 80.792969 34.046875 79.863281 34.769531 C 79.484375 35.074219 78.992188 35.195312 78.515625 35.113281 C 78.039062 35.027344 77.621094 34.742188 77.367188 34.328125 C 76.71875 32.324219 76.582031 30.191406 76.964844 28.121094 C 77.011719 25.246094 77.730469 22.417969 79.058594 19.863281 C 79.308594 19.507812 79.714844 19.296875 80.148438 19.296875 C 80.578125 19.296875 80.984375 19.507812 81.234375 19.863281 C 82.628906 21.324219 83.847656 22.949219 84.859375 24.699219 L 85.222656 25.382812 C 85.917969 26.570312 86.6875 27.714844 87.519531 28.808594 C 87.84375 28.808594 87.84375 27.597656 87.84375 27.597656 C 87.355469 24.210938 86.585938 20.867188 85.546875 17.605469 C 85.410156 17.09375 85.410156 16.550781 85.546875 16.035156 C 85.546875 15.351562 86.472656 15.671875 86.472656 15.671875 C 88.660156 17.066406 90.210938 19.265625 90.785156 21.796875 C 91.804688 25.144531 91.804688 28.722656 90.785156 32.070312 Z M 76.519531 20.023438 C 76.238281 20.507812 76.117188 21.191406 74.910156 21.355469 C 70.773438 21.542969 66.660156 22.097656 62.621094 23.003906 C 62.621094 23.003906 62.257812 23.488281 62.863281 23.609375 C 63.46875 23.730469 66.207031 24.09375 67.457031 24.175781 C 68.703125 24.253906 73.378906 24.175781 75.070312 26.269531 C 75.765625 27.191406 76.097656 28.339844 75.996094 29.492188 C 75.996094 31.75 75.554688 32.554688 74.667969 33.519531 C 73.78125 34.488281 65.804688 37.871094 60.6875 32.394531 C 60.054688 31.726562 59.773438 30.800781 59.933594 29.894531 C 60.089844 28.988281 60.671875 28.210938 61.492188 27.800781 C 61.492188 27.800781 63.789062 26.390625 69.550781 28.042969 C 69.550781 28.042969 71.285156 28.644531 71.242188 29.289062 C 71.203125 29.933594 69.792969 30.699219 67.816406 30.660156 C 66.773438 30.644531 65.75 30.367188 64.835938 29.855469 C 65.078125 29.855469 62.78125 28.726562 62.058594 29.574219 C 61.332031 30.417969 61.53125 30.78125 62.058594 31.265625 C 65.683594 32.339844 69.601562 31.730469 72.734375 29.613281 C 72.734375 29.613281 73.539062 28.6875 72.289062 27.960938 C 70.320312 27.210938 68.234375 26.804688 66.125 26.753906 C 64.835938 26.753906 59.921875 26.753906 59.195312 25.464844 C 59.195312 25.464844 58.511719 24.578125 59.195312 22.078125 C 59.882812 19.582031 65.683594 18.453125 68.179688 18.050781 C 68.179688 18.050781 74.988281 17.769531 76.238281 19.179688 Z M 57.183594 35.375 C 56.1875 35.917969 54.957031 35.773438 54.121094 35.011719 C 53.46875 32.804688 53.277344 30.488281 53.554688 28.203125 C 53.324219 25.050781 53.679688 21.878906 54.601562 18.855469 C 55.449219 18.089844 55.972656 18.855469 56.335938 19.257812 C 56.863281 19.914062 57.171875 20.714844 57.222656 21.554688 C 57.222656 22.804688 57.625 29.089844 57.625 29.089844 C 57.625 29.089844 57.988281 34.8125 57.222656 35.414062 Z M 63.105469 4.070312 C 62.5 2.257812 59.074219 2.496094 59.074219 2.496094 C 54.777344 2.515625 50.941406 5.195312 49.445312 9.226562 C 49.058594 10.691406 49.527344 12.246094 50.65625 13.253906 C 50.367188 13.824219 50.367188 14.5 50.65625 15.070312 C 50.65625 15.390625 51.378906 16.519531 52.066406 16.4375 C 52.75 16.359375 52.871094 16.074219 53.476562 14.949219 C 55.230469 15.671875 57.199219 15.671875 58.953125 14.949219 C 62.660156 13.660156 66.328125 9.953125 66.328125 6.890625 C 66.328125 3.828125 63.105469 4.070312 63.105469 4.070312 Z M 51.984375 10.796875 C 51.660156 10.3125 51.703125 9.667969 52.386719 8.5 C 53.285156 7.125 54.777344 6.246094 56.417969 6.125 C 54.660156 7.394531 53.15625 8.976562 51.984375 10.796875 Z M 63.667969 8.621094 C 61.847656 11.644531 58.273438 13.128906 54.84375 12.289062 C 56.554688 9.648438 59.089844 7.652344 62.058594 6.609375 C 64.59375 6.042969 63.628906 8.5 63.628906 8.5 Z M 121.324219 19.660156 C 117.816406 17.246094 112.175781 24.941406 109.71875 28.765625 C 109.621094 27.234375 109.941406 25.699219 110.648438 24.335938 C 110.648438 24.335938 112.742188 20.710938 113.023438 19.984375 C 113.304688 19.257812 113.507812 17.6875 113.023438 17.527344 C 112.539062 17.363281 112.136719 17.847656 112.136719 17.847656 C 109.433594 20.214844 107.566406 23.398438 106.820312 26.914062 C 106.398438 28.8125 106.714844 30.800781 107.707031 32.472656 C 105.421875 36.582031 104.191406 41.191406 104.121094 45.890625 C 104.414062 47.597656 105.464844 49.078125 106.980469 49.917969 C 107.945312 50.324219 108.148438 49.113281 108.148438 49.113281 C 108.769531 44.335938 110.054688 39.671875 111.976562 35.253906 C 116.890625 36.382812 120.597656 31.585938 121.929688 29.25 C 123.257812 26.914062 123.539062 21.234375 121.324219 19.660156 Z M 118.140625 29.210938 C 116.875 30.191406 115.375 30.816406 113.789062 31.023438 C 115.234375 28.238281 117.050781 25.664062 119.1875 23.367188 C 120.636719 21.714844 120.878906 23.367188 120.878906 23.367188 C 120.925781 25.636719 119.914062 27.792969 118.140625 29.210938 Z M 34.417969 5.078125 C 34.417969 5.078125 18.300781 -3.183594 4.925781 1.410156 C 4.144531 1.492188 3.476562 2.007812 3.191406 2.738281 C 2.425781 3.828125 1.742188 4.59375 2.144531 5.398438 C 2.546875 6.203125 4.601562 6.609375 6.417969 5.964844 C 6.417969 5.964844 7.261719 5.4375 6.417969 5.117188 C 5.894531 4.921875 5.351562 4.773438 4.804688 4.671875 C 4.804688 4.671875 4.28125 4.671875 4.804688 4.269531 C 10.511719 2.761719 16.535156 2.957031 22.128906 4.835938 C 32.886719 7.574219 47.429688 16.238281 47.027344 25.261719 C 46.625 34.285156 32.484375 34.691406 32.484375 34.691406 C 30.199219 34.746094 27.917969 34.558594 25.675781 34.125 C 25.675781 31.183594 25.472656 26.066406 25.472656 23.046875 C 31.035156 23.046875 36.59375 23.972656 37.035156 25.382812 C 37.035156 25.382812 37.320312 25.988281 36.070312 26.589844 C 34.820312 27.195312 34.054688 27.519531 35.023438 27.960938 C 35.730469 28.292969 36.496094 28.484375 37.277344 28.523438 C 39.050781 28.234375 40.414062 26.804688 40.621094 25.019531 C 40.824219 22.523438 37.964844 20.347656 33.652344 19.582031 C 31.007812 19 28.296875 18.769531 25.59375 18.894531 C 25.699219 16.574219 25.371094 14.25 24.628906 12.046875 C 23.863281 11 23.054688 9.628906 22.410156 11.199219 C 21.671875 13.824219 21.292969 16.535156 21.285156 19.257812 C 17.25 19.707031 13.421875 21.285156 10.242188 23.8125 C 9.136719 24.925781 9.136719 26.726562 10.242188 27.839844 C 13.023438 31.394531 16.671875 34.171875 20.839844 35.898438 C 20.890625 37.109375 21.179688 38.300781 21.6875 39.402344 C 22.8125 41.015625 24.828125 39.886719 25.070312 39.605469 C 25.3125 39.324219 25.433594 38.839844 25.515625 37.550781 C 30.480469 38.9375 35.734375 38.9375 40.703125 37.550781 C 50.050781 34.730469 51.378906 28.929688 51.621094 25.464844 C 51.863281 22 49.566406 12.730469 34.417969 5.078125 Z M 20.960938 32.753906 C 17.28125 31.523438 13.949219 29.421875 11.25 26.632812 C 14.757812 23.628906 18 22.976562 21.285156 22.886719 C 21.285156 25.625 21.324219 27.519531 20.960938 32.753906 Z M 20.960938 32.753906 "/>
</g>
</svg>
