<?xml version="1.0" encoding="UTF-8"?>
<svg xmlns="http://www.w3.org/2000/svg" xmlns:xlink="http://www.w3.org/1999/xlink" width="48px" height="50px" viewBox="0 0 48 49" version="1.1">
<g id="surface1">
<path style=" stroke:none;fill-rule:nonzero;fill:rgb(0%,0%,0%);fill-opacity:1;" d="M 34.375 36.742188 L 13.625 36.742188 C 12.800781 36.742188 12.128906 37.402344 12.128906 38.214844 C 12.128906 39.03125 12.800781 39.691406 13.625 39.691406 L 34.375 39.691406 C 35.199219 39.691406 35.871094 39.03125 35.871094 38.214844 C 35.871094 37.402344 35.199219 36.742188 34.375 36.742188 Z M 34.375 36.742188 "/>
<path style=" stroke:none;fill-rule:nonzero;fill:rgb(0%,0%,0%);fill-opacity:1;" d="M 44.652344 13.636719 L 28.886719 1.648438 C 26.007812 -0.539062 21.992188 -0.539062 19.109375 1.648438 L 3.347656 13.640625 C 1.019531 15.410156 -0.136719 18.296875 0.332031 21.160156 L 3.808594 42.371094 C 4.425781 46.207031 7.78125 49.023438 11.714844 49.011719 L 36.289062 49.011719 C 40.222656 49.023438 43.578125 46.207031 44.195312 42.371094 L 47.671875 21.160156 C 48.140625 18.296875 46.980469 15.410156 44.652344 13.636719 Z M 44.71875 20.6875 L 41.242188 41.898438 C 40.855469 44.300781 38.753906 46.070312 36.285156 46.0625 L 11.714844 46.0625 C 9.246094 46.070312 7.144531 44.300781 6.757812 41.898438 L 3.28125 20.6875 C 2.988281 18.894531 3.714844 17.082031 5.175781 15.972656 L 20.9375 3.984375 C 22.742188 2.609375 25.257812 2.609375 27.0625 3.984375 L 42.828125 15.972656 C 44.285156 17.082031 45.011719 18.894531 44.71875 20.6875 Z M 44.71875 20.6875 "/>
</g>
</svg>
