<?xml version="1.0" encoding="UTF-8"?>
<svg xmlns="http://www.w3.org/2000/svg" xmlns:xlink="http://www.w3.org/1999/xlink" width="50px" height="50px" viewBox="0 0 50 50" version="1.1">
<g id="surface1">
<path style=" stroke:none;fill-rule:evenodd;fill:rgb(16.862746%,16.470589%,16.078432%);fill-opacity:1;" d="M 25 0 C 38.855469 0 50 11.246094 50 25 C 50 38.855469 38.753906 50 25 50 C 11.144531 50 0 38.753906 0 25 C 0 11.144531 11.246094 0 25 0 Z M 25.300781 3.914062 L 29.316406 21.988281 L 43.773438 34.539062 C 45.28125 31.625 46.085938 28.414062 46.085938 25 C 46.085938 13.453125 36.847656 4.117188 25.300781 3.914062 Z M 43.171875 35.640625 L 25.101562 30.121094 L 7.230469 36.546875 C 11.042969 42.269531 17.46875 46.085938 24.898438 46.085938 C 32.730469 46.085938 39.457031 41.867188 43.171875 35.542969 Z M 6.324219 34.941406 L 20.382812 22.691406 L 23.796875 4.015625 C 12.652344 4.617188 3.816406 13.855469 3.816406 25.101562 C 3.816406 28.714844 4.71875 32.027344 6.226562 35.039062 Z M 6.324219 34.941406 "/>
</g>
</svg>
