<?xml version="1.0" encoding="UTF-8"?>
<svg xmlns="http://www.w3.org/2000/svg" xmlns:xlink="http://www.w3.org/1999/xlink" width="50px" height="50px" viewBox="0 0 50 50" version="1.1">
<g id="surface1">
<path style=" stroke:none;fill-rule:evenodd;fill:rgb(17.647059%,17.647059%,17.647059%);fill-opacity:1;" d="M 37.5 50 L 12.5 50 C 5.597656 50 0 44.402344 0 37.5 L 0 12.5 C 0 5.597656 5.597656 0 12.5 0 L 37.5 0 C 44.402344 0 50 5.597656 50 12.5 L 50 37.5 C 50 44.402344 44.402344 50 37.5 50 "/>
<path style=" stroke:none;fill-rule:evenodd;fill:rgb(27.45098%,27.45098%,27.45098%);fill-opacity:1;" d="M 23.4375 14.0625 L 37.5 14.0625 C 41.246094 14.066406 44.339844 11.132812 44.53125 7.390625 C 44.722656 3.648438 41.945312 0.414062 38.21875 0.0351562 C 37.980469 0.0234375 37.742188 0 37.5 0 L 12.5 0 C 5.597656 0 0 5.597656 0 12.5 L 0 37.5 C 0 24.554688 10.492188 14.0625 23.4375 14.0625 "/>
<path style=" stroke:none;fill-rule:evenodd;fill:rgb(7.843137%,7.843137%,7.843137%);fill-opacity:1;" d="M 37.5 25 C 30.597656 25 25 30.597656 25 37.5 C 25 44.402344 30.597656 50 37.5 50 C 44.402344 50 50 44.402344 50 37.5 L 50 12.5 C 50 19.402344 44.402344 25 37.5 25 "/>
<path style=" stroke:none;fill-rule:evenodd;fill:rgb(82.352941%,0%,7.843137%);fill-opacity:1;" d="M 21.09375 9.375 C 21.523438 9.375 21.875 9.726562 21.875 10.15625 L 21.875 40.886719 C 21.875 41.300781 21.550781 41.644531 21.136719 41.667969 C 19.875 41.730469 18.617188 41.832031 17.359375 41.976562 C 16.917969 42.027344 16.476562 41.882812 16.144531 41.589844 C 15.816406 41.292969 15.625 40.867188 15.625 40.425781 L 15.625 10.15625 C 15.625 9.726562 15.976562 9.375 16.40625 9.375 Z M 34.375 10.15625 C 34.375 9.292969 33.675781 8.59375 32.8125 8.59375 L 29.6875 8.59375 C 28.824219 8.59375 28.125 9.292969 28.125 10.15625 L 28.125 40.625 C 28.125 41.054688 28.476562 41.40625 28.90625 41.40625 L 33.59375 41.40625 C 34.023438 41.40625 34.375 41.054688 34.375 40.625 Z M 34.375 10.15625 "/>
<path style=" stroke:none;fill-rule:nonzero;fill:rgb(100%,3.921569%,11.764706%);fill-opacity:1;" d="M 22.691406 9.628906 C 22.46875 9.007812 21.878906 8.59375 21.21875 8.59375 L 17.1875 8.59375 C 16.324219 8.59375 15.625 9.292969 15.625 10.15625 L 15.625 10.152344 C 15.625 10.019531 15.71875 9.90625 15.851562 9.882812 C 15.980469 9.859375 16.105469 9.9375 16.152344 10.058594 L 27.121094 40.632812 C 27.335938 41.230469 27.894531 41.640625 28.527344 41.667969 C 30.144531 41.742188 31.722656 41.886719 32.832031 42.007812 C 33.226562 42.050781 33.617188 41.921875 33.910156 41.660156 C 34.207031 41.394531 34.375 41.019531 34.375 40.625 L 34.375 40.628906 C 34.375 40.761719 34.28125 40.875 34.152344 40.898438 C 34.019531 40.921875 33.894531 40.847656 33.847656 40.722656 Z M 22.691406 9.628906 "/>
</g>
</svg>
