<?xml version="1.0" encoding="UTF-8"?>
<svg xmlns="http://www.w3.org/2000/svg" xmlns:xlink="http://www.w3.org/1999/xlink" width="50px" height="50px" viewBox="0 0 50 50" version="1.1">
<g id="surface1">
<path style=" stroke:none;fill-rule:evenodd;fill:rgb(0%,0%,0%);fill-opacity:1;" d="M 16.832031 43.332031 C 17.605469 47.136719 20.972656 50 25 50 C 29.027344 50 32.394531 47.136719 33.167969 43.332031 L 45 43.332031 C 46.328125 43.332031 47.597656 42.808594 48.535156 41.867188 C 49.472656 40.929688 50 39.660156 50 38.332031 C 50 37.007812 49.472656 35.734375 48.535156 34.796875 C 48.164062 34.425781 46.308594 33.015625 44.753906 31.867188 C 43.859375 31.148438 43.339844 30.0625 43.339844 28.914062 L 43.339844 28.910156 C 43.332031 26.394531 43.332031 22.449219 43.332031 18.332031 C 43.332031 8.207031 35.125 0 25 0 C 14.875 0 6.667969 8.207031 6.667969 18.332031 L 6.667969 28.914062 C 6.667969 30.0625 6.148438 31.144531 5.257812 31.863281 C 3.683594 33.023438 1.835938 34.425781 1.464844 34.796875 C 0.527344 35.734375 0 37.007812 0 38.332031 C 0 39.660156 0.527344 40.929688 1.464844 41.867188 C 2.402344 42.808594 3.675781 43.332031 5 43.332031 Z M 20.285156 43.332031 L 29.714844 43.332031 C 29.007812 45.328125 27.117188 46.664062 25 46.664062 C 22.882812 46.664062 20.992188 45.328125 20.285156 43.332031 Z M 40 18.332031 C 40 10.050781 33.285156 3.332031 25 3.332031 C 16.714844 3.332031 10 10.050781 10 18.332031 L 10 28.914062 C 10 31.097656 9 33.164062 7.28125 34.511719 L 7.238281 34.546875 C 5.839844 35.570312 4.15625 36.820312 3.820312 37.15625 C 3.507812 37.46875 3.332031 37.890625 3.332031 38.332031 C 3.332031 38.777344 3.507812 39.199219 3.820312 39.511719 C 4.132812 39.824219 4.558594 40 5 40 L 45 40 C 45.441406 40 45.867188 39.824219 46.179688 39.511719 C 46.492188 39.199219 46.667969 38.777344 46.667969 38.332031 C 46.667969 37.890625 46.492188 37.46875 46.179688 37.15625 C 45.84375 36.820312 44.160156 35.570312 42.761719 34.539062 L 42.722656 34.507812 C 41.007812 33.160156 40.007812 31.097656 40.007812 28.917969 C 40 26.402344 40 22.453125 40 18.332031 Z M 40 18.332031 "/>
</g>
</svg>
