<?xml version="1.0" encoding="UTF-8"?>
<svg xmlns="http://www.w3.org/2000/svg" xmlns:xlink="http://www.w3.org/1999/xlink" width="50px" height="50px" viewBox="0 0 50 50" version="1.1">
<g id="surface1">
<path style=" stroke:none;fill-rule:nonzero;fill:rgb(0%,0%,0%);fill-opacity:1;" d="M 43.183594 50 L 6.816406 50 C 3.050781 50 0 46.949219 0 43.183594 L 0 6.816406 C 0 3.050781 3.050781 0 6.816406 0 L 20.453125 0 C 21.710938 0 22.726562 1.015625 22.726562 2.273438 C 22.726562 3.527344 21.710938 4.546875 20.453125 4.546875 L 6.816406 4.546875 C 5.5625 4.546875 4.546875 5.5625 4.546875 6.816406 L 4.546875 43.183594 C 4.546875 44.4375 5.5625 45.453125 6.816406 45.453125 L 43.183594 45.453125 C 44.4375 45.453125 45.453125 44.4375 45.453125 43.183594 L 45.453125 29.546875 C 45.453125 28.289062 46.472656 27.273438 47.726562 27.273438 C 48.984375 27.273438 50 28.289062 50 29.546875 L 50 43.183594 C 50 46.949219 46.949219 50 43.183594 50 Z M 34.089844 31.816406 L 20.453125 31.816406 C 19.199219 31.816406 18.183594 30.800781 18.183594 29.546875 L 18.183594 15.910156 C 18.183594 14.652344 19.199219 13.636719 20.453125 13.636719 C 21.710938 13.636719 22.726562 14.652344 22.726562 15.910156 L 22.726562 24.066406 L 46.113281 0.660156 C 47.003906 -0.230469 48.449219 -0.230469 49.339844 0.660156 C 50.230469 1.550781 50.230469 2.996094 49.339844 3.886719 L 25.953125 27.273438 L 34.089844 27.273438 C 35.347656 27.273438 36.363281 28.289062 36.363281 29.546875 C 36.363281 30.800781 35.347656 31.816406 34.089844 31.816406 Z M 34.089844 31.816406 "/>
</g>
</svg>
