<?xml version="1.0" encoding="UTF-8"?>
<svg xmlns="http://www.w3.org/2000/svg" xmlns:xlink="http://www.w3.org/1999/xlink" width="42px" height="50px" viewBox="0 0 42 49" version="1.1">
<g id="surface1">
<path style=" stroke:none;fill-rule:evenodd;fill:rgb(0%,0%,0%);fill-opacity:1;" d="M 18.640625 38.148438 C 20.039062 37.117188 21.960938 37.117188 23.359375 38.148438 L 31.757812 44.335938 C 34.351562 46.246094 38.054688 44.425781 38.054688 41.242188 L 38.054688 7.734375 C 38.054688 5.597656 36.292969 3.867188 34.117188 3.867188 L 7.882812 3.867188 C 5.707031 3.867188 3.945312 5.597656 3.945312 7.734375 L 3.945312 41.242188 C 3.945312 44.425781 7.648438 46.246094 10.242188 44.335938 Z M 21 41.242188 L 29.394531 47.425781 C 34.585938 51.25 41.988281 47.613281 41.988281 41.242188 L 41.988281 7.734375 C 41.988281 3.460938 38.464844 0 34.117188 0 L 7.882812 0 C 3.535156 0 0.0117188 3.460938 0.0117188 7.734375 L 0.0117188 41.242188 C 0.0117188 47.613281 7.414062 51.25 12.605469 47.425781 Z M 21 41.242188 "/>
<path style=" stroke:none;fill-rule:evenodd;fill:rgb(0%,0%,0%);fill-opacity:1;" d="M 11.160156 12.886719 C 11.160156 11.820312 12.042969 10.953125 13.128906 10.953125 L 28.871094 10.953125 C 29.957031 10.953125 30.839844 11.820312 30.839844 12.886719 C 30.839844 13.957031 29.957031 14.820312 28.871094 14.820312 L 13.128906 14.820312 C 12.042969 14.820312 11.160156 13.957031 11.160156 12.886719 Z M 11.160156 12.886719 "/>
</g>
</svg>
