<?xml version="1.0" encoding="UTF-8"?>
<svg xmlns="http://www.w3.org/2000/svg" xmlns:xlink="http://www.w3.org/1999/xlink" width="50px" height="50px" viewBox="0 0 50 50" version="1.1">
<g id="surface1">
<path style=" stroke:none;fill-rule:evenodd;fill:rgb(0%,0%,0%);fill-opacity:1;" d="M 48.078125 0 L 32.691406 0 C 31.628906 0 30.769531 0.859375 30.769531 1.921875 C 30.769531 2.984375 31.628906 3.847656 32.691406 3.847656 L 43.4375 3.847656 L 18.511719 28.769531 C 18 29.25 17.785156 29.96875 17.960938 30.652344 C 18.132812 31.332031 18.667969 31.867188 19.347656 32.039062 C 20.03125 32.214844 20.75 32 21.230469 31.488281 L 46.152344 6.5625 L 46.152344 17.308594 C 46.152344 18.371094 47.015625 19.230469 48.078125 19.230469 C 49.140625 19.230469 50 18.371094 50 17.308594 L 50 1.921875 C 50 0.859375 49.140625 0 48.078125 0 Z M 12.179688 5.128906 C 5.453125 5.128906 0 10.582031 0 17.308594 L 0 37.820312 C 0 44.546875 5.453125 50 12.179688 50 L 32.691406 50 C 39.417969 50 44.871094 44.546875 44.871094 37.820312 L 44.871094 25 C 44.871094 23.9375 44.011719 23.078125 42.949219 23.078125 C 41.886719 23.078125 41.027344 23.9375 41.027344 25 L 41.027344 37.820312 C 41.027344 42.421875 37.292969 46.152344 32.691406 46.152344 L 12.179688 46.152344 C 7.578125 46.152344 3.847656 42.421875 3.847656 37.820312 L 3.847656 17.308594 C 3.847656 12.707031 7.578125 8.972656 12.179688 8.972656 L 25 8.972656 C 26.0625 8.972656 26.921875 8.113281 26.921875 7.050781 C 26.921875 5.988281 26.0625 5.128906 25 5.128906 Z M 12.179688 5.128906 "/>
</g>
</svg>
