<?xml version="1.0" encoding="UTF-8"?>
<svg xmlns="http://www.w3.org/2000/svg" xmlns:xlink="http://www.w3.org/1999/xlink" width="53px" height="50px" viewBox="0 0 53 50" version="1.1">
<g id="surface1">
<path style=" stroke:none;fill-rule:nonzero;fill:rgb(0%,0%,0%);fill-opacity:1;" d="M 49.5 17.667969 C 47.441406 17.367188 45.632812 16.132812 44.585938 14.316406 C 43.539062 12.5 43.367188 10.300781 44.121094 8.34375 C 44.605469 7.046875 44.21875 5.582031 43.164062 4.699219 C 40.886719 2.765625 38.292969 1.246094 35.5 0.210938 C 34.199219 -0.277344 32.730469 0.132812 31.863281 1.230469 C 30.574219 2.898438 28.59375 3.875 26.5 3.875 C 24.40625 3.875 22.425781 2.898438 21.136719 1.230469 C 20.269531 0.132812 18.800781 -0.277344 17.5 0.210938 C 14.921875 1.167969 12.511719 2.535156 10.359375 4.257812 C 9.246094 5.148438 8.835938 6.667969 9.347656 8.007812 C 10.164062 10.019531 9.988281 12.304688 8.871094 14.164062 C 7.753906 16.023438 5.832031 17.242188 3.691406 17.441406 C 2.28125 17.59375 1.136719 18.65625 0.871094 20.0625 C 0.546875 21.683594 0.382812 23.335938 0.382812 24.992188 C 0.378906 26.375 0.492188 27.761719 0.714844 29.128906 C 0.941406 30.578125 2.105469 31.699219 3.550781 31.855469 C 5.742188 32.0625 7.699219 33.332031 8.796875 35.257812 C 9.898438 37.183594 10.007812 39.53125 9.089844 41.550781 C 8.480469 42.886719 8.84375 44.46875 9.976562 45.390625 C 12.238281 47.285156 14.808594 48.78125 17.566406 49.804688 C 17.921875 49.929688 18.292969 49.996094 18.664062 50 C 19.703125 49.996094 20.679688 49.484375 21.277344 48.628906 C 22.535156 46.773438 24.621094 45.664062 26.847656 45.671875 C 29.003906 45.671875 31.03125 46.703125 32.316406 48.453125 C 33.183594 49.628906 34.726562 50.070312 36.078125 49.523438 C 38.601562 48.496094 40.949219 47.078125 43.042969 45.320312 C 44.117188 44.417969 44.5 42.917969 43.980469 41.605469 C 43.152344 39.617188 43.292969 37.351562 44.363281 35.488281 C 45.4375 33.621094 47.3125 32.375 49.429688 32.117188 C 50.820312 31.925781 51.925781 30.84375 52.164062 29.445312 C 52.445312 27.976562 52.597656 26.484375 52.617188 24.992188 C 52.617188 23.414062 52.472656 21.839844 52.183594 20.292969 C 51.941406 18.925781 50.859375 17.867188 49.5 17.667969 Z M 48.769531 28.652344 C 45.664062 29.109375 42.9375 30.976562 41.359375 33.71875 C 39.785156 36.457031 39.53125 39.777344 40.671875 42.730469 C 38.945312 44.195312 37.007812 45.382812 34.925781 46.25 C 32.984375 43.703125 29.980469 42.210938 26.796875 42.222656 C 23.519531 42.238281 20.445312 43.824219 18.507812 46.496094 C 16.253906 45.628906 14.148438 44.40625 12.273438 42.871094 C 13.5625 39.878906 13.375 36.445312 11.769531 33.613281 C 10.148438 30.75 7.28125 28.832031 4.039062 28.441406 C 3.898438 27.296875 3.839844 26.144531 3.863281 24.992188 C 3.863281 23.625 3.992188 22.265625 4.246094 20.925781 C 7.40625 20.550781 10.21875 18.71875 11.855469 15.960938 C 13.492188 13.234375 13.789062 9.894531 12.65625 6.917969 C 14.433594 5.507812 16.414062 4.378906 18.527344 3.574219 C 20.484375 5.988281 23.410156 7.390625 26.5 7.390625 C 29.589844 7.390625 32.515625 5.988281 34.472656 3.574219 C 36.769531 4.449219 38.90625 5.703125 40.796875 7.285156 C 39.75 10.195312 40.039062 13.421875 41.582031 16.097656 C 43.125 18.769531 45.765625 20.609375 48.785156 21.121094 C 49.011719 22.398438 49.128906 23.691406 49.136719 24.992188 C 49.128906 26.21875 49.03125 27.441406 48.839844 28.652344 Z M 48.769531 28.652344 "/>
<path style=" stroke:none;fill-rule:nonzero;fill:rgb(0%,0%,0%);fill-opacity:1;" d="M 26.5 14.429688 C 20.730469 14.429688 16.054688 19.160156 16.054688 24.992188 C 16.054688 30.824219 20.730469 35.550781 26.5 35.550781 C 32.269531 35.550781 36.945312 30.824219 36.945312 24.992188 C 36.945312 19.160156 32.269531 14.429688 26.5 14.429688 Z M 26.5 32.03125 C 22.652344 32.03125 19.535156 28.878906 19.535156 24.992188 C 19.535156 21.101562 22.652344 17.953125 26.5 17.953125 C 30.347656 17.953125 33.464844 21.101562 33.464844 24.992188 C 33.464844 28.878906 30.347656 32.03125 26.5 32.03125 Z M 26.5 32.03125 "/>
</g>
</svg>
