<?xml version="1.0" encoding="UTF-8"?>
<svg xmlns="http://www.w3.org/2000/svg" xmlns:xlink="http://www.w3.org/1999/xlink" width="50px" height="50px" viewBox="0 0 50 50" version="1.1">
<g id="surface1">
<path style=" stroke:none;fill-rule:nonzero;fill:rgb(7.058824%,77.647059%,29.411765%);fill-opacity:1;" d="M 50 25 C 50 38.808594 38.808594 50 25 50 C 11.191406 50 0 38.808594 0 25 C 0 11.191406 11.191406 0 25 0 C 38.808594 0 50 11.191406 50 25 Z M 50 25 "/>
<path style=" stroke:none;fill-rule:nonzero;fill:rgb(100%,100%,100%);fill-opacity:1;" d="M 34.03125 34.242188 C 33.617188 34.945312 32.714844 35.183594 32.007812 34.773438 C 28.121094 32.5 23.628906 32.136719 20.542969 32.214844 C 18.539062 32.265625 16.546875 32.53125 14.597656 33 C 13.84375 33.132812 13.113281 32.671875 12.910156 31.9375 C 12.707031 31.199219 13.097656 30.429688 13.8125 30.160156 C 15.960938 29.625 18.15625 29.324219 20.371094 29.261719 C 22.484375 29.183594 24.605469 29.335938 26.6875 29.71875 C 29.085938 30.152344 31.390625 30.996094 33.503906 32.207031 C 33.847656 32.40625 34.09375 32.734375 34.191406 33.113281 C 34.292969 33.496094 34.234375 33.902344 34.03125 34.242188 Z M 36.78125 28.527344 C 36.46875 29.066406 35.890625 29.398438 35.265625 29.398438 C 34.957031 29.398438 34.652344 29.316406 34.382812 29.15625 C 29.777344 26.464844 24.460938 26.03125 20.804688 26.144531 C 18.429688 26.203125 16.070312 26.515625 13.761719 27.074219 C 12.84375 27.289062 11.917969 26.742188 11.667969 25.832031 C 11.417969 24.921875 11.933594 23.980469 12.832031 23.695312 C 15.375 23.066406 17.980469 22.714844 20.597656 22.644531 C 23.105469 22.546875 25.617188 22.730469 28.085938 23.1875 C 30.921875 23.703125 33.652344 24.699219 36.152344 26.136719 C 36.984375 26.625 37.265625 27.695312 36.78125 28.527344 Z M 40.339844 22.269531 C 40.054688 22.761719 39.582031 23.121094 39.03125 23.265625 C 38.480469 23.410156 37.890625 23.328125 37.402344 23.039062 C 26.453125 16.640625 12.25 20.445312 12.117188 20.484375 C 11.363281 20.722656 10.542969 20.527344 9.976562 19.980469 C 9.40625 19.433594 9.183594 18.621094 9.394531 17.859375 C 9.601562 17.101562 10.210938 16.515625 10.980469 16.339844 C 14.09375 15.570312 17.277344 15.140625 20.484375 15.058594 C 23.558594 14.941406 26.636719 15.164062 29.660156 15.722656 C 33.140625 16.347656 36.488281 17.5625 39.558594 19.316406 C 40.054688 19.605469 40.417969 20.078125 40.566406 20.632812 C 40.710938 21.1875 40.632812 21.777344 40.339844 22.269531 Z M 40.339844 22.269531 "/>
</g>
</svg>
