<?xml version="1.0" encoding="UTF-8"?>
<svg xmlns="http://www.w3.org/2000/svg" xmlns:xlink="http://www.w3.org/1999/xlink" width="67px" height="50px" viewBox="0 0 67 50" version="1.1">
<g id="surface1">
<path style=" stroke:none;fill-rule:nonzero;fill:rgb(0%,0%,0%);fill-opacity:1;" d="M 0.0429688 11.972656 C 0.0429688 10.484375 1.257812 9.265625 2.746094 9.265625 L 47.367188 9.265625 C 48.855469 9.265625 50.070312 10.484375 50.070312 11.972656 C 50.070312 13.464844 48.855469 14.679688 47.367188 14.679688 L 2.746094 14.679688 C 1.257812 14.679688 0.0429688 13.476562 0.0429688 11.972656 Z M 0.0429688 11.972656 "/>
<path style=" stroke:none;fill-rule:nonzero;fill:rgb(0%,0%,0%);fill-opacity:1;" d="M 35.722656 2.703125 C 35.722656 2.011719 35.984375 1.320312 36.519531 0.78125 C 37.578125 -0.261719 39.289062 -0.261719 40.335938 0.796875 L 49.105469 9.632812 C 50.386719 10.925781 50.386719 13.03125 49.105469 14.328125 L 40.335938 23.164062 C 39.289062 24.222656 37.578125 24.234375 36.519531 23.175781 C 35.460938 22.128906 35.449219 20.417969 36.507812 19.359375 L 43.8125 12 L 36.507812 4.613281 C 35.984375 4.089844 35.722656 3.398438 35.722656 2.703125 Z M 16.929688 38.039062 C 16.929688 36.550781 18.144531 35.332031 19.632812 35.332031 L 64.253906 35.332031 C 65.742188 35.332031 66.957031 36.535156 66.957031 38.039062 C 66.957031 39.542969 65.742188 40.746094 64.253906 40.746094 L 19.632812 40.746094 C 18.128906 40.734375 16.929688 39.53125 16.929688 38.039062 Z M 16.929688 38.039062 "/>
<path style=" stroke:none;fill-rule:nonzero;fill:rgb(0%,0%,0%);fill-opacity:1;" d="M 16.929688 38.039062 C 16.929688 37.191406 17.253906 36.339844 17.894531 35.699219 L 26.664062 26.863281 C 27.710938 25.804688 29.421875 25.789062 30.480469 26.851562 C 31.539062 27.894531 31.550781 29.609375 30.492188 30.667969 L 23.1875 38.027344 L 30.492188 45.398438 C 31.539062 46.457031 31.539062 48.171875 30.480469 49.21875 C 29.421875 50.261719 27.710938 50.261719 26.664062 49.203125 L 17.894531 40.367188 C 17.253906 39.738281 16.929688 38.890625 16.929688 38.039062 Z M 16.929688 38.039062 "/>
</g>
</svg>
