<?xml version="1.0" encoding="UTF-8"?>
<svg xmlns="http://www.w3.org/2000/svg" xmlns:xlink="http://www.w3.org/1999/xlink" width="50px" height="50px" viewBox="0 0 50 50" version="1.1">
<g id="surface1">
<path style=" stroke:none;fill-rule:nonzero;fill:rgb(34.117648%,33.725491%,36.078432%);fill-opacity:1;" d="M 39.746094 50 L 10.253906 50 C 4.601562 50 0 45.398438 0 39.746094 L 0 10.253906 C 0 4.601562 4.601562 0 10.253906 0 L 39.746094 0 C 45.398438 0 50 4.601562 50 10.253906 L 50 39.746094 C 50 45.398438 45.398438 50 39.746094 50 Z M 39.746094 50 "/>
<path style=" stroke:none;fill-rule:nonzero;fill:rgb(24.313726%,23.921569%,25.882354%);fill-opacity:1;" d="M 39.746094 0 L 25 0 L 25 50 L 39.746094 50 C 45.398438 50 50 45.398438 50 39.746094 L 50 10.253906 C 50 4.601562 45.398438 0 39.746094 0 Z M 39.746094 0 "/>
<path style=" stroke:none;fill-rule:nonzero;fill:rgb(89.803922%,89.803922%,89.803922%);fill-opacity:1;" d="M 15.957031 18.867188 C 16.917969 17.601562 18.253906 17.59375 18.253906 17.59375 C 18.253906 17.59375 18.453125 18.785156 17.496094 19.933594 C 16.476562 21.160156 15.320312 20.957031 15.320312 20.957031 C 15.320312 20.957031 15.101562 19.996094 15.957031 18.867188 Z M 18.0625 32.203125 C 17.210938 32.203125 16.542969 31.628906 15.644531 31.628906 C 14.726562 31.628906 13.816406 32.226562 13.222656 32.226562 C 11.523438 32.226562 9.375 28.546875 9.375 25.589844 C 9.375 22.679688 11.191406 21.152344 12.898438 21.152344 C 14.003906 21.152344 14.867188 21.792969 15.441406 21.792969 C 15.9375 21.792969 16.855469 21.113281 18.046875 21.113281 C 20.105469 21.113281 20.914062 22.578125 20.914062 22.578125 C 20.914062 22.578125 19.332031 23.386719 19.332031 25.347656 C 19.332031 27.5625 21.304688 28.328125 21.304688 28.328125 C 21.304688 28.328125 19.925781 32.203125 18.0625 32.203125 Z M 28.925781 31.972656 C 28.417969 32.128906 27.882812 32.207031 27.324219 32.207031 C 25.585938 32.207031 24.667969 31.25 24.667969 29.6875 L 24.667969 23.808594 L 23.320312 23.808594 L 23.320312 21.796875 L 24.667969 21.796875 L 24.667969 18.476562 L 27.285156 18.476562 L 27.285156 21.796875 L 29.433594 21.796875 L 29.433594 23.808594 L 27.285156 23.808594 L 27.285156 28.808594 C 27.285156 29.515625 27.6875 29.804688 28.261719 29.804688 C 28.808594 29.804688 29.53125 29.5 29.6875 29.433594 L 30.214844 31.503906 C 29.863281 31.660156 29.433594 31.816406 28.925781 31.972656 Z M 28.925781 31.972656 "/>
<path style=" stroke:none;fill-rule:nonzero;fill:rgb(80.000001%,80.000001%,80.000001%);fill-opacity:1;" d="M 37.167969 32.03125 L 34.335938 32.03125 L 30.566406 21.796875 L 33.261719 21.796875 L 35.859375 29.902344 L 38.476562 21.796875 L 40.9375 21.796875 Z M 29.6875 29.433594 C 29.53125 29.5 28.808594 29.804688 28.261719 29.804688 C 27.6875 29.804688 27.285156 29.515625 27.285156 28.808594 L 27.285156 23.808594 L 29.433594 23.808594 L 29.433594 21.796875 L 27.285156 21.796875 L 27.285156 18.476562 L 25 18.476562 L 25 31.085938 C 25.410156 31.800781 26.191406 32.207031 27.324219 32.207031 C 27.882812 32.207031 28.417969 32.128906 28.925781 31.972656 C 29.433594 31.816406 29.863281 31.660156 30.214844 31.503906 Z M 29.6875 29.433594 "/>
</g>
</svg>
