<?xml version="1.0" encoding="UTF-8"?>
<svg xmlns="http://www.w3.org/2000/svg" xmlns:xlink="http://www.w3.org/1999/xlink" width="163px" height="50px" viewBox="0 0 160 50" version="1.1">
<g id="surface1">
<path style=" stroke:none;fill-rule:nonzero;fill:rgb(100%,100%,100%);fill-opacity:1;" d="M 64.070312 1.195312 L 55.9375 48.917969 L 68.945312 48.917969 L 77.082031 1.195312 Z M 45.03125 1.25 L 32.292969 33.792969 L 30.9375 28.878906 C 28.425781 22.960938 21.292969 14.457031 12.917969 9.097656 L 24.566406 48.894531 L 38.328125 48.871094 L 58.8125 1.238281 Z M 45.03125 1.25 "/>
<path style=" stroke:none;fill-rule:nonzero;fill:rgb(100%,100%,100%);fill-opacity:1;" d="M 26 4.664062 C 25.242188 1.757812 23.050781 0.890625 20.332031 0.789062 L 0.167969 0.789062 L 0 1.738281 C 15.691406 5.542969 26.074219 14.71875 30.382812 25.746094 Z M 103.441406 10.34375 C 106.78125 10.269531 110.09375 10.890625 113.175781 12.171875 L 114.351562 12.722656 L 116.109375 2.378906 C 113.535156 1.414062 109.496094 0.375 104.460938 0.375 C 91.609375 0.375 82.550781 6.847656 82.480469 16.125 C 82.394531 22.980469 88.929688 26.804688 93.867188 29.089844 C 98.9375 31.433594 100.636719 32.921875 100.613281 35.011719 C 100.574219 38.207031 96.570312 39.671875 92.835938 39.671875 C 87.628906 39.671875 84.859375 38.953125 80.589844 37.171875 L 78.914062 36.410156 L 77.082031 47.089844 C 80.128906 48.425781 85.742188 49.574219 91.574219 49.632812 C 105.246094 49.632812 114.132812 43.238281 114.222656 33.324219 C 114.28125 27.902344 110.8125 23.765625 103.296875 20.371094 C 98.746094 18.15625 95.964844 16.683594 95.988281 14.449219 C 95.988281 12.464844 98.351562 10.34375 103.441406 10.34375 Z M 149.488281 1.25 L 139.441406 1.25 C 136.320312 1.25 133.996094 2.097656 132.625 5.210938 L 113.316406 48.945312 L 126.972656 48.945312 C 126.972656 48.945312 129.199219 43.0625 129.707031 41.777344 L 146.363281 41.796875 C 146.75 43.460938 147.949219 48.945312 147.949219 48.945312 L 160.011719 48.945312 Z M 133.449219 32.007812 C 134.519531 29.269531 138.632812 18.671875 138.632812 18.671875 C 138.5625 18.800781 139.691406 15.910156 140.363281 14.113281 L 141.238281 18.230469 L 144.253906 32.007812 Z M 133.449219 32.007812 "/>
</g>
</svg>
